ffmpeg version git-2026-04-19-de18feb Copyright (c) 2000-2026 the FFmpeg developers
  built with gcc 9 (Ubuntu 9.4.0-1ubuntu1~20.04.2)
  configuration: --enable-shared --enable-gpl --enable-libx264
  libavutil      60. 30.100 / 60. 30.100
  libavcodec     62. 30.100 / 62. 30.100
  libavformat    62. 13.102 / 62. 13.102
  libavdevice    62.  4.100 / 62.  4.100
  libavfilter    11. 15.101 / 11. 15.101
  libswscale      9.  7.100 /  9.  7.100
  libswresample   6.  4.100 /  6.  4.100
[in#0/x11grab @ 0x55a6b7603c40] Stream #0: not enough frames to estimate rate; consider increasing probesize
Input #0, x11grab, from ':0.0+0,0':
  Duration: N/A, start: 1777357341.515720, bitrate: 3678192 kb/s
  Stream #0:0: Video: rawvideo (BGR[0] / 0x524742), bgr0, 2870x1602, 3678192 kb/s, 25 fps, 1000k tbr, 1000k tbn, start 1777357341.515720
Stream mapping:
  Stream #0:0 -> #0:0 (rawvideo (native) -> h264 (libx264))
[libx264 @ 0x55a6b7611f00] using cpu capabilities: MMX2 SSE2Fast SSSE3 SSE4.2 AVX FMA3 BMI2 AVX2
[libx264 @ 0x55a6b7611f00] profile High, level 5.0
[libx264 @ 0x55a6b7611f00] 264 - core 155 r2917 0a84d98 - H.264/MPEG-4 AVC codec - Copyleft 2003-2018 - http://www.videolan.org/x264.html - options: cabac=1 ref=1 deblock=1:0:0 analyse=0x3:0x113 me=hex subme=2 psy=1 psy_rd=1.00:0.00 mixed_ref=0 me_range=16 chroma_me=1 trellis=0 8x8dct=1 cqm=0 deadzone=21,11 fast_pskip=1 chroma_qp_offset=0 threads=6 lookahead_threads=2 sliced_threads=0 nr=0 decimate=1 interlaced=0 bluray_compat=0 constrained_intra=0 bframes=3 b_pyramid=2 b_adapt=1 b_bias=0 direct=1 weightb=1 open_gop=0 weightp=1 keyint=250 keyint_min=25 scenecut=40 intra_refresh=0 rc_lookahead=10 rc=crf mbtree=1 crf=23.0 qcomp=0.60 qpmin=0 qpmax=69 qpstep=4 ip_ratio=1.40 aq=1:1.00
Output #0, matroska, to '/home/lmy/catkin_ws/recordings_tmp/demo_run_1_screen.mkv':
  Metadata:
    encoder         : Lavf62.13.102
  Stream #0:0: Video: h264 (H264 / 0x34363248), yuv420p(tv, progressive), 2870x1602, q=2-31, 25 fps, 1k tbn
    Metadata:
      encoder         : Lavc62.30.100 libx264
    Side data:
      CPB properties: bitrate max/min/avg: 0/0/0 buffer size: 0 vbv_delay: N/A
frame=    0 fps=0.0 q=0.0 size=       0KiB time=N/A bitrate=N/A dup=0 drop=2 speed=N/A elapsed=0:00:00.50    frame=    0 fps=0.0 q=0.0 size=       0KiB time=N/A bitrate=N/A dup=0 drop=10 speed=N/A elapsed=0:00:01.00    frame=    0 fps=0.0 q=0.0 size=       0KiB time=N/A bitrate=N/A dup=0 drop=11 speed=N/A elapsed=0:00:01.52    frame=    0 fps=0.0 q=28.0 size=       0KiB time=N/A bitrate=N/A dup=0 drop=13 speed=N/A elapsed=0:00:02.02    frame=    4 fps=1.6 q=28.0 size=       1KiB time=00:00:00.52 bitrate=   9.1kbits/s dup=0 drop=13 speed=0.206x elapsed=0:00:02.52    frame=   15 fps=5.0 q=27.0 size=       1KiB time=00:00:01.00 bitrate=   4.8kbits/s dup=0 drop=13 speed=0.33x elapsed=0:00:03.02    frame=   31 fps=8.8 q=23.0 size=       1KiB time=00:00:01.72 bitrate=   2.8kbits/s dup=0 drop=13 speed=0.488x elapsed=0:00:03.52    frame=   44 fps= 11 q=28.0 size=       1KiB time=00:00:03.08 bitrate=   1.5kbits/s dup=0 drop=17 speed=0.765x elapsed=0:00:04.02    frame=   61 fps= 13 q=28.0 size=       1KiB time=00:00:03.88 bitrate=   1.2kbits/s dup=0 drop=25 speed=0.857x elapsed=0:00:04.52    frame=   79 fps= 16 q=28.0 size=       1KiB time=00:00:04.60 bitrate=   1.0kbits/s dup=0 drop=37 speed=0.915x elapsed=0:00:05.02    frame=   93 fps= 17 q=28.0 size=     768KiB time=00:00:05.16 bitrate=1219.3kbits/s dup=0 drop=37 speed=0.933x elapsed=0:00:05.52    frame=  105 fps= 17 q=28.0 size=     768KiB time=00:00:05.60 bitrate=1123.5kbits/s dup=0 drop=37 speed=0.929x elapsed=0:00:06.02    frame=  118 fps= 18 q=28.0 size=     768KiB time=00:00:06.12 bitrate=1028.0kbits/s dup=0 drop=37 speed=0.937x elapsed=0:00:06.52    frame=  129 fps= 18 q=28.0 size=     768KiB time=00:00:06.60 bitrate= 953.3kbits/s dup=0 drop=37 speed=0.939x elapsed=0:00:07.03    frame=  141 fps= 19 q=28.0 size=     768KiB time=00:00:07.08 bitrate= 888.6kbits/s dup=0 drop=37 speed=0.94x elapsed=0:00:07.53    frame=  155 fps= 19 q=28.0 size=     768KiB time=00:00:07.60 bitrate= 827.8kbits/s dup=0 drop=37 speed=0.946x elapsed=0:00:08.03    frame=  168 fps= 20 q=28.0 size=     768KiB time=00:00:08.16 bitrate= 771.0kbits/s dup=0 drop=37 speed=0.956x elapsed=0:00:08.53    frame=  180 fps= 20 q=28.0 size=     768KiB time=00:00:08.60 bitrate= 731.6kbits/s dup=0 drop=37 speed=0.952x elapsed=0:00:09.03    frame=  193 fps= 20 q=28.0 size=     768KiB time=00:00:09.12 bitrate= 689.9kbits/s dup=0 drop=37 speed=0.957x elapsed=0:00:09.53    frame=  205 fps= 20 q=28.0 size=     768KiB time=00:00:09.60 bitrate= 655.4kbits/s dup=0 drop=37 speed=0.956x elapsed=0:00:10.03    frame=  218 fps= 21 q=28.0 size=    1536KiB time=00:00:10.12 bitrate=1243.4kbits/s dup=0 drop=37 speed=0.96x elapsed=0:00:10.53    frame=  230 fps= 21 q=28.0 size=    1536KiB time=00:00:10.64 bitrate=1182.6kbits/s dup=0 drop=37 speed=0.964x elapsed=0:00:11.03    frame=  243 fps= 21 q=28.0 size=    1536KiB time=00:00:11.16 bitrate=1127.5kbits/s dup=0 drop=37 speed=0.967x elapsed=0:00:11.53    frame=  255 fps= 21 q=28.0 size=    1536KiB time=00:00:11.60 bitrate=1084.7kbits/s dup=0 drop=37 speed=0.963x elapsed=0:00:12.03    frame=  268 fps= 21 q=28.0 size=    1536KiB time=00:00:12.16 bitrate=1034.8kbits/s dup=0 drop=37 speed=0.97x elapsed=0:00:12.53    frame=  280 fps= 21 q=28.0 size=    1536KiB time=00:00:12.64 bitrate= 995.5kbits/s dup=0 drop=37 speed=0.969x elapsed=0:00:13.04    frame=  293 fps= 22 q=28.0 size=    1536KiB time=00:00:13.12 bitrate= 959.1kbits/s dup=0 drop=37 speed=0.969x elapsed=0:00:13.54    frame=  306 fps= 22 q=28.0 size=    1536KiB time=00:00:13.68 bitrate= 919.8kbits/s dup=0 drop=37 speed=0.974x elapsed=0:00:14.04    frame=  318 fps= 22 q=28.0 size=    1536KiB time=00:00:14.12 bitrate= 891.1kbits/s dup=0 drop=37 speed=0.971x elapsed=0:00:14.54    frame=  330 fps= 22 q=28.0 size=    1536KiB time=00:00:14.60 bitrate= 861.8kbits/s dup=0 drop=37 speed=0.971x elapsed=0:00:15.04    frame=  343 fps= 22 q=28.0 size=    1536KiB time=00:00:15.12 bitrate= 832.2kbits/s dup=0 drop=37 speed=0.973x elapsed=0:00:15.54    frame=  356 fps= 22 q=28.0 size=    1536KiB time=00:00:15.68 bitrate= 802.5kbits/s dup=0 drop=37 speed=0.977x elapsed=0:00:16.04    frame=  368 fps= 22 q=28.0 size=    1536KiB time=00:00:16.16 bitrate= 778.6kbits/s dup=0 drop=37 speed=0.977x elapsed=0:00:16.54    frame=  381 fps= 22 q=28.0 size=    1792KiB time=00:00:16.64 bitrate= 882.2kbits/s dup=0 drop=37 speed=0.976x elapsed=0:00:17.04    frame=  393 fps= 22 q=28.0 size=    1792KiB time=00:00:17.16 bitrate= 855.5kbits/s dup=0 drop=37 speed=0.978x elapsed=0:00:17.54    frame=  406 fps= 23 q=28.0 size=    1792KiB time=00:00:17.68 bitrate= 830.3kbits/s dup=0 drop=37 speed=0.98x elapsed=0:00:18.04    frame=  418 fps= 23 q=28.0 size=    1792KiB time=00:00:18.12 bitrate= 810.2kbits/s dup=0 drop=37 speed=0.977x elapsed=0:00:18.54    frame=  431 fps= 23 q=28.0 size=    1792KiB time=00:00:18.68 bitrate= 785.9kbits/s dup=0 drop=37 speed=0.981x elapsed=0:00:19.04    frame=  443 fps= 23 q=28.0 size=    1792KiB time=00:00:19.12 bitrate= 767.8kbits/s dup=0 drop=37 speed=0.978x elapsed=0:00:19.54    frame=  456 fps= 23 q=28.0 size=    1792KiB time=00:00:19.68 bitrate= 745.9kbits/s dup=0 drop=37 speed=0.982x elapsed=0:00:20.04    frame=  468 fps= 23 q=28.0 size=    1792KiB time=00:00:20.16 bitrate= 728.2kbits/s dup=0 drop=37 speed=0.981x elapsed=0:00:20.54    frame=  481 fps= 23 q=28.0 size=    1792KiB time=00:00:20.68 bitrate= 709.9kbits/s dup=0 drop=37 speed=0.983x elapsed=0:00:21.04    frame=  493 fps= 23 q=28.0 size=    1792KiB time=00:00:21.12 bitrate= 695.1kbits/s dup=0 drop=37 speed=0.98x elapsed=0:00:21.54    frame=  506 fps= 23 q=28.0 size=    1792KiB time=00:00:21.64 bitrate= 678.4kbits/s dup=0 drop=37 speed=0.982x elapsed=0:00:22.04    frame=  518 fps= 23 q=28.0 size=    1792KiB time=00:00:22.16 bitrate= 662.5kbits/s dup=0 drop=37 speed=0.983x elapsed=0:00:22.54    frame=  531 fps= 23 q=28.0 size=    1792KiB time=00:00:22.68 bitrate= 647.3kbits/s dup=0 drop=37 speed=0.984x elapsed=0:00:23.04    frame=  543 fps= 23 q=28.0 size=    1792KiB time=00:00:23.12 bitrate= 635.0kbits/s dup=0 drop=37 speed=0.982x elapsed=0:00:23.54    frame=  556 fps= 23 q=28.0 size=    1792KiB time=00:00:23.64 bitrate= 621.0kbits/s dup=0 drop=37 speed=0.983x elapsed=0:00:24.05    frame=  568 fps= 23 q=28.0 size=    1792KiB time=00:00:24.12 bitrate= 608.6kbits/s dup=0 drop=37 speed=0.982x elapsed=0:00:24.55    frame=  581 fps= 23 q=28.0 size=    1792KiB time=00:00:24.68 bitrate= 594.8kbits/s dup=0 drop=37 speed=0.985x elapsed=0:00:25.05    frame=  593 fps= 23 q=28.0 size=    1792KiB time=00:00:25.16 bitrate= 583.5kbits/s dup=0 drop=37 speed=0.985x elapsed=0:00:25.55    frame=  606 fps= 23 q=28.0 size=    1792KiB time=00:00:25.68 bitrate= 571.7kbits/s dup=0 drop=37 speed=0.986x elapsed=0:00:26.05    frame=  618 fps= 23 q=28.0 size=    1792KiB time=00:00:26.16 bitrate= 561.2kbits/s dup=0 drop=37 speed=0.985x elapsed=0:00:26.55    frame=  630 fps= 23 q=28.0 size=    2304KiB time=00:00:26.64 bitrate= 708.5kbits/s dup=0 drop=37 speed=0.985x elapsed=0:00:27.05    frame=  642 fps= 23 q=28.0 size=    2304KiB time=00:00:27.08 bitrate= 697.0kbits/s dup=0 drop=37 speed=0.983x elapsed=0:00:27.55    frame=  656 fps= 23 q=28.0 size=    2304KiB time=00:00:27.64 bitrate= 682.9kbits/s dup=0 drop=37 speed=0.985x elapsed=0:00:28.05    frame=  668 fps= 23 q=28.0 size=    2304KiB time=00:00:28.16 bitrate= 670.3kbits/s dup=0 drop=37 speed=0.986x elapsed=0:00:28.55    frame=  681 fps= 23 q=28.0 size=    2304KiB time=00:00:28.68 bitrate= 658.1kbits/s dup=0 drop=37 speed=0.987x elapsed=0:00:29.05    frame=  693 fps= 23 q=28.0 size=    2304KiB time=00:00:29.16 bitrate= 647.3kbits/s dup=0 drop=37 speed=0.987x elapsed=0:00:29.55    frame=  706 fps= 23 q=28.0 size=    2304KiB time=00:00:29.68 bitrate= 635.9kbits/s dup=0 drop=37 speed=0.987x elapsed=0:00:30.05    frame=  718 fps= 23 q=28.0 size=    2304KiB time=00:00:30.16 bitrate= 625.8kbits/s dup=0 drop=37 speed=0.987x elapsed=0:00:30.55    frame=  731 fps= 24 q=28.0 size=    2304KiB time=00:00:30.68 bitrate= 615.2kbits/s dup=0 drop=37 speed=0.988x elapsed=0:00:31.05    frame=  744 fps= 24 q=28.0 size=    2304KiB time=00:00:31.16 bitrate= 605.7kbits/s dup=0 drop=37 speed=0.987x elapsed=0:00:31.55    frame=  756 fps= 24 q=28.0 size=    2304KiB time=00:00:31.68 bitrate= 595.8kbits/s dup=0 drop=37 speed=0.988x elapsed=0:00:32.05    frame=  768 fps= 24 q=28.0 size=    2304KiB time=00:00:32.12 bitrate= 587.6kbits/s dup=0 drop=37 speed=0.987x elapsed=0:00:32.55    frame=  781 fps= 24 q=28.0 size=    2304KiB time=00:00:32.68 bitrate= 577.6kbits/s dup=0 drop=37 speed=0.989x elapsed=0:00:33.05    frame=  794 fps= 24 q=28.0 size=    2304KiB time=00:00:33.20 bitrate= 568.5kbits/s dup=0 drop=37 speed=0.989x elapsed=0:00:33.55    frame=  806 fps= 24 q=28.0 size=    2304KiB time=00:00:33.64 bitrate= 561.1kbits/s dup=0 drop=37 speed=0.988x elapsed=0:00:34.05    frame=  819 fps= 24 q=28.0 size=    2304KiB time=00:00:34.16 bitrate= 552.5kbits/s dup=0 drop=37 speed=0.988x elapsed=0:00:34.55    frame=  831 fps= 24 q=28.0 size=    2304KiB time=00:00:34.64 bitrate= 544.9kbits/s dup=0 drop=37 speed=0.988x elapsed=0:00:35.05    frame=  843 fps= 24 q=28.0 size=    2304KiB time=00:00:35.12 bitrate= 537.4kbits/s dup=0 drop=37 speed=0.988x elapsed=0:00:35.55    frame=  856 fps= 24 q=28.0 size=    2304KiB time=00:00:35.68 bitrate= 529.0kbits/s dup=0 drop=37 speed=0.989x elapsed=0:00:36.05    frame=  868 fps= 24 q=28.0 size=    2304KiB time=00:00:36.16 bitrate= 522.0kbits/s dup=0 drop=37 speed=0.989x elapsed=0:00:36.55    frame=  881 fps= 24 q=28.0 size=    2560KiB time=00:00:36.68 bitrate= 571.7kbits/s dup=0 drop=37 speed=0.99x elapsed=0:00:37.06    frame=  893 fps= 24 q=28.0 size=    2560KiB time=00:00:37.16 bitrate= 564.4kbits/s dup=0 drop=37 speed=0.989x elapsed=0:00:37.56    frame=  906 fps= 24 q=28.0 size=    2560KiB time=00:00:37.64 bitrate= 557.2kbits/s dup=0 drop=37 speed=0.989x elapsed=0:00:38.06    frame=  918 fps= 24 q=28.0 size=    2560KiB time=00:00:38.12 bitrate= 550.1kbits/s dup=0 drop=37 speed=0.989x elapsed=0:00:38.56    frame=  931 fps= 24 q=28.0 size=    2560KiB time=00:00:38.64 bitrate= 542.7kbits/s dup=0 drop=37 speed=0.989x elapsed=0:00:39.06    frame=  943 fps= 24 q=28.0 size=    2560KiB time=00:00:39.12 bitrate= 536.1kbits/s dup=0 drop=37 speed=0.989x elapsed=0:00:39.56    frame=  956 fps= 24 q=28.0 size=    2560KiB time=00:00:39.64 bitrate= 529.0kbits/s dup=0 drop=37 speed=0.989x elapsed=0:00:40.06    frame=  969 fps= 24 q=28.0 size=    2560KiB time=00:00:40.20 bitrate= 521.7kbits/s dup=0 drop=37 speed=0.991x elapsed=0:00:40.56    frame=  981 fps= 24 q=28.0 size=    2560KiB time=00:00:40.68 bitrate= 515.5kbits/s dup=0 drop=37 speed=0.991x elapsed=0:00:41.06    frame=  994 fps= 24 q=28.0 size=    2560KiB time=00:00:41.16 bitrate= 509.5kbits/s dup=0 drop=37 speed=0.99x elapsed=0:00:41.56    frame= 1006 fps= 24 q=28.0 size=    2816KiB time=00:00:41.68 bitrate= 553.5kbits/s dup=0 drop=37 speed=0.991x elapsed=0:00:42.06    frame= 1019 fps= 24 q=28.0 size=    2816KiB time=00:00:42.16 bitrate= 547.2kbits/s dup=0 drop=37 speed=0.99x elapsed=0:00:42.56    frame= 1031 fps= 24 q=28.0 size=    2816KiB time=00:00:42.68 bitrate= 540.5kbits/s dup=0 drop=37 speed=0.991x elapsed=0:00:43.06    frame= 1044 fps= 24 q=28.0 size=    2816KiB time=00:00:43.20 bitrate= 534.0kbits/s dup=0 drop=37 speed=0.992x elapsed=0:00:43.56    frame= 1056 fps= 24 q=28.0 size=    2816KiB time=00:00:43.64 bitrate= 528.6kbits/s dup=0 drop=37 speed=0.99x elapsed=0:00:44.06    frame= 1069 fps= 24 q=28.0 size=    2816KiB time=00:00:44.20 bitrate= 521.9kbits/s dup=0 drop=37 speed=0.992x elapsed=0:00:44.56    frame= 1081 fps= 24 q=28.0 size=    2816KiB time=00:00:44.64 bitrate= 516.8kbits/s dup=0 drop=37 speed=0.991x elapsed=0:00:45.06    frame= 1094 fps= 24 q=28.0 size=    2816KiB time=00:00:45.16 bitrate= 510.8kbits/s dup=0 drop=37 speed=0.991x elapsed=0:00:45.56    frame= 1106 fps= 24 q=28.0 size=    2816KiB time=00:00:45.68 bitrate= 505.0kbits/s dup=0 drop=37 speed=0.992x elapsed=0:00:46.06    frame= 1119 fps= 24 q=28.0 size=    2816KiB time=00:00:46.16 bitrate= 499.8kbits/s dup=0 drop=37 speed=0.991x elapsed=0:00:46.56    frame= 1131 fps= 24 q=28.0 size=    3072KiB time=00:00:46.64 bitrate= 539.6kbits/s dup=0 drop=37 speed=0.991x elapsed=0:00:47.06    frame= 1144 fps= 24 q=28.0 size=    3072KiB time=00:00:47.20 bitrate= 533.2kbits/s dup=0 drop=37 speed=0.992x elapsed=0:00:47.56    frame= 1156 fps= 24 q=28.0 size=    3072KiB time=00:00:47.64 bitrate= 528.2kbits/s dup=0 drop=37 speed=0.991x elapsed=0:00:48.06    frame= 1169 fps= 24 q=28.0 size=    3072KiB time=00:00:48.16 bitrate= 522.5kbits/s dup=0 drop=37 speed=0.992x elapsed=0:00:48.57    frame= 1181 fps= 24 q=28.0 size=    3072KiB time=00:00:48.68 bitrate= 517.0kbits/s dup=0 drop=37 speed=0.992x elapsed=0:00:49.07    [out#0/matroska @ 0x55a6b7610500] Error writing trailer: Immediate exit requested
[out#0/matroska @ 0x55a6b7610500] Error closing file: Immediate exit requested
[out#0/matroska @ 0x55a6b7610500] video:3768KiB audio:0KiB subtitle:0KiB other streams:0KiB global headers:0KiB muxing overhead: unknown
frame= 1215 fps= 24 q=-1.0 Lsize=    3072KiB time=00:00:50.00 bitrate= 503.3kbits/s dup=0 drop=37 speed=1.01x elapsed=0:00:49.73    
[libx264 @ 0x55a6b7611f00] frame I:6     Avg QP:11.48  size:212671
[libx264 @ 0x55a6b7611f00] frame P:310   Avg QP:17.64  size:  5998
[libx264 @ 0x55a6b7611f00] frame B:899   Avg QP:23.00  size:   804
[libx264 @ 0x55a6b7611f00] consecutive B-frames:  1.0%  0.3%  2.2% 96.5%
[libx264 @ 0x55a6b7611f00] mb I  I16..4: 79.5%  1.3% 19.2%
[libx264 @ 0x55a6b7611f00] mb P  I16..4:  1.1%  0.1%  0.2%  P16..4:  0.6%  0.3%  0.2%  0.0%  0.0%    skip:97.5%
[libx264 @ 0x55a6b7611f00] mb B  I16..4:  0.3%  0.0%  0.0%  B16..8:  0.4%  0.1%  0.0%  direct: 0.1%  skip:99.1%  L0:43.8% L1:50.6% BI: 5.6%
[libx264 @ 0x55a6b7611f00] 8x8 transform intra:2.5% inter:5.0%
[libx264 @ 0x55a6b7611f00] coded y,uvDC,uvAC intra: 15.6% 22.7% 19.7% inter: 0.1% 0.1% 0.1%
[libx264 @ 0x55a6b7611f00] i16 v,h,dc,p: 55% 43%  2%  0%
[libx264 @ 0x55a6b7611f00] i8 v,h,dc,ddl,ddr,vr,hd,vl,hu: 17% 23% 53%  1%  1%  0%  3%  0%  2%
[libx264 @ 0x55a6b7611f00] i4 v,h,dc,ddl,ddr,vr,hd,vl,hu: 32% 31% 18%  2%  3%  3%  5%  3%  4%
[libx264 @ 0x55a6b7611f00] i8c dc,h,v,p: 53% 38%  8%  1%
[libx264 @ 0x55a6b7611f00] Weighted P-Frames: Y:0.0% UV:0.0%
[libx264 @ 0x55a6b7611f00] kb/s:615.81
Exiting normally, received signal 2.
